HIERARCHY
ROOT Hips
{
	OFFSET 0.000000 0.000000 0.000000
	CHANNELS 6 Xposition Yposition Zposition Zrotation Yrotation Xrotation 
	JOINT LHipJoint
	{
		OFFSET 0.000000 0.000000 0.000000
		CHANNELS 3 Zrotation Yrotation Xrotation
		JOINT LeftUpLeg
		{
			OFFSET 1.363060 -1.794630 0.839290
			CHANNELS 3 Zrotation Yrotation Xrotation
			JOINT LeftLeg
			{
				OFFSET 2.448110 -6.726130 0.000000
				CHANNELS 3 Zrotation Yrotation Xrotation
				JOINT LeftFoot
				{
					OFFSET 2.562200 -7.039590 0.000000
					CHANNELS 3 Zrotation Yrotation Xrotation
					JOINT LeftToeBase
					{
						OFFSET 0.157640 -0.433110 2.322550
						CHANNELS 3 Zrotation Yrotation Xrotation
						End Site
						{
							OFFSET 0.000000 0.000000 0.000000
						}
					}
				}
			}
		}
	}
	JOINT RHipJoint
	{
		OFFSET 0.000000 0.000000 0.000000
		CHANNELS 3 Zrotation Yrotation Xrotation
		JOINT RightUpLeg
		{
			OFFSET -1.305520 -1.794630 0.839290
			CHANNELS 3 Zrotation Yrotation Xrotation
			JOINT RightLeg
			{
				OFFSET -2.542530 -6.985550 0.000000
				CHANNELS 3 Zrotation Yrotation Xrotation
				JOINT RightFoot
				{
					OFFSET -2.568260 -7.056230 0.000000
					CHANNELS 3 Zrotation Yrotation Xrotation
					JOINT RightToeBase
					{
						OFFSET -0.164730 -0.452590 2.363150
						CHANNELS 3 Zrotation Yrotation Xrotation
						End Site
						{
							OFFSET 0.000000 0.000000 0.000000
						}
					}
				}
			}
		}
	}
}
MOTION
Frames: 25
Frame Time: 0.008333
6.385465 17.427113 -0.001473 74.037346 88.773315 81.500599 -9.977069 3.220683 1.448268 -15.514376 8.583346 -1.281052 -3.226873 -1.093289 -0.884308 -0.521129 -5.383155 -0.054817 -0.319600 -0.000001 -29.740600 10.140627 -0.851884 1.532890 5.730579 -2.197409 -29.669538 1.026007 -2.184698 35.463428 -1.304387 -5.360821 -4.903829 -0.573100 0.000000 -25.797200
6.500960 17.419968 0.005787 74.943457 88.698223 82.531113 -9.960810 3.264948 1.413971 -15.510816 8.678554 -0.805579 -3.234798 -1.104122 -1.183122 -0.533331 -5.487684 0.087230 -0.337600 -0.000000 -30.196000 10.078110 -0.789604 1.699277 5.791214 -1.818246 -30.042810 1.135479 -2.035912 33.626618 -1.274920 -5.172802 -4.741469 -0.600200 -0.000001 -26.010700
6.617026 17.412178 0.014040 75.826226 88.617291 83.535888 -9.939001 3.310716 1.384290 -15.509918 8.754916 -0.345856 -3.242829 -1.111985 -1.435151 -0.544503 -5.586701 0.212508 -0.354500 0.000000 -30.637400 10.021933 -0.736638 1.858712 5.871155 -1.516334 -30.403493 1.253002 -1.882524 31.741005 -1.220544 -4.877429 -4.485720 -0.625301 -0.000000 -26.493300
6.733750 17.403738 0.023221 76.682022 88.531909 84.511440 -9.911977 3.357259 1.360001 -15.511130 8.804886 0.102195 -3.250272 -1.117302 -1.644601 -0.553884 -5.671477 0.317018 -0.369200 -0.000000 -31.076100 9.971801 -0.692825 2.009448 5.976567 -1.293320 -30.748331 1.379538 -1.724336 29.807107 -1.140800 -4.477566 -4.133879 -0.645900 0.000000 -27.214500
6.851176 17.394694 0.033346 77.477212 88.442335 85.423243 -9.880025 3.404122 1.341391 -15.514654 8.825194 0.543780 -3.256730 -1.120553 -1.817729 -0.561065 -5.736385 0.399889 -0.380800 0.000000 -31.527300 9.927471 -0.657674 2.150832 6.111552 -1.145821 -31.072484 1.515636 -1.561006 27.828360 -1.036889 -3.981171 -3.693248 -0.658300 0.000000 -28.118599
6.969378 17.385077 0.044418 78.165317 88.349335 86.223891 -9.844486 3.451630 1.325816 -15.517901 8.833497 0.973144 -3.263143 -1.121310 -1.947124 -0.567308 -5.797752 0.458911 -0.390601 0.000000 -32.009900 9.888769 -0.630473 2.284397 6.278519 -1.064481 -31.373144 1.661350 -1.391995 25.812207 -0.911782 -3.401295 -3.181858 -0.658400 0.000001 -29.123100
7.088336 17.374849 0.056417 78.653926 88.250596 86.820304 -9.804415 3.498262 1.314645 -15.526216 8.809266 1.411107 -3.268041 -1.121155 -2.062448 -0.571041 -5.830313 0.507405 -0.397100 0.000000 -32.539900 9.854919 -0.608834 2.408727 6.474630 -1.038147 -31.643772 1.815903 -1.217063 23.767833 -0.769207 -2.752072 -2.621654 -0.642400 0.000000 -30.187500
7.208081 17.364024 0.069384 78.886883 88.145400 87.155498 -9.761244 3.544548 1.304122 -15.537782 8.775003 1.851749 -3.272747 -1.119445 -2.157333 -0.574039 -5.855346 0.549755 -0.402500 0.000000 -33.132500 9.825470 -0.590988 2.526610 6.696135 -1.050489 -31.881807 1.977865 -1.035423 21.706765 -0.614234 -2.051430 -2.043380 -0.607600 0.000000 -31.239800
7.328610 17.352619 0.083340 78.805060 88.031626 87.169803 -9.715039 3.589861 1.293228 -15.555302 8.728642 2.303841 -3.277013 -1.116598 -2.245862 -0.576269 -5.868130 0.599142 -0.407200 0.000000 -33.795700 9.799453 -0.574212 2.639106 6.935955 -1.084919 -32.083494 2.145004 -0.846429 19.640027 -0.452083 -1.317366 -1.477179 -0.553200 0.000000 -32.246900
7.449959 17.340714 0.098325 78.420824 87.910142 86.875583 -9.668594 3.636276 1.275825 -15.571746 8.716874 2.742300 -3.283733 -1.110371 -2.296368 -0.581423 -5.917646 0.654061 -0.416100 -0.000000 -34.528600 9.776660 -0.557201 2.752183 7.187408 -1.122802 -32.249645 2.314615 -0.648640 17.576002 -0.288648 -0.571926 -0.953544 -0.481400 -0.000001 -33.154400
7.572093 17.328302 0.114202 77.708396 87.778158 86.247308 -9.620473 3.681550 1.255050 -15.594090 8.702531 3.194674 -3.290234 -1.102470 -2.347660 -0.586818 -5.962770 0.735934 -0.426500 -0.000000 -35.325700 9.755279 -0.536589 2.863601 7.441858 -1.152690 -32.374835 2.483446 -0.441680 15.520719 -0.128587 0.167068 -0.492200 -0.395900 0.000000 -33.990100
7.695083 17.315539 0.130970 76.746814 87.638033 85.364573 -9.573415 3.727930 1.226467 -15.613176 8.726442 3.632651 -3.298921 -1.090414 -2.362802 -0.595635 -6.048628 0.838286 -0.442800 0.000000 -36.169100 9.735199 -0.511898 2.979244 7.694056 -1.161494 -32.461034 2.648268 -0.223995 13.474614 0.023016 0.876462 -0.108906 -0.303000 0.000000 -34.732000
7.818987 17.302508 0.148466 75.580258 87.490506 84.272475 -9.527251 3.774098 1.192338 -15.630392 8.765177 4.068603 -3.307785 -1.074710 -2.358451 -0.606051 -6.150259 0.970647 -0.463400 -0.000000 -37.044800 9.714961 -0.481350 3.097460 7.939843 -1.144751 -32.504760 2.805839 0.004774 11.435853 0.162481 1.537286 0.193851 -0.209100 -0.000000 -35.420600
7.943837 17.289311 0.166571 74.294119 87.338436 83.056740 -9.483226 3.820548 1.152719 -15.640421 8.823544 4.493393 -3.316671 -1.054372 -2.321314 -0.618259 -6.274039 1.128336 -0.488900 0.000000 -37.934100 9.694147 -0.444772 3.219421 8.178051 -1.100288 -32.505677 2.953161 0.245017 9.400147 0.286643 2.130237 0.421113 -0.121000 0.000000 -36.075400
8.069746 17.276064 0.185082 72.955779 87.185364 81.784830 -9.441856 3.866709 1.109708 -15.640987 8.887601 4.909977 -3.324084 -1.029307 -2.252797 -0.630957 -6.405657 1.308953 -0.517900 -0.000000 -38.825300 9.672047 -0.402083 3.343309 8.409800 -1.031087 -32.461768 3.087616 0.496027 7.365045 0.393414 2.639986 0.585326 -0.044000 0.000000 -36.728300
8.196896 17.262835 0.203952 71.651286 87.035998 80.543545 -9.404842 3.913979 1.063203 -15.624305 8.972517 5.299388 -3.330573 -0.998109 -2.125548 -0.644891 -6.562507 1.497010 -0.551400 -0.000000 -39.706300 9.649269 -0.354617 3.470364 8.637280 -0.941425 -32.376642 3.207119 0.756546 5.332368 0.481356 3.053667 0.700166 0.017600 -0.000000 -37.376500
8.325317 17.249680 0.222970 70.405702 86.892666 79.356940 -9.371474 3.960677 1.017613 -15.593528 9.045010 5.677857 -3.333545 -0.961939 -1.958676 -0.657244 -6.707452 1.692345 -0.585300 -0.000000 -40.585100 9.625023 -0.302548 3.595431 8.864003 -0.839460 -32.250676 3.310156 1.023088 3.313950 0.550515 3.367937 0.779979 0.062400 -0.000000 -38.047100
8.455038 17.236553 0.241976 69.233448 86.759322 78.233807 -9.342576 4.006397 0.973185 -15.545098 9.099981 6.053474 -3.331780 -0.920659 -1.752684 -0.667118 -6.830884 1.888362 -0.618100 -0.000001 -41.474999 9.598951 -0.246959 3.713235 9.094914 -0.735102 -32.081238 3.396212 1.290927 1.331522 0.601917 3.587392 0.831782 0.090600 0.000000 -38.733100
8.586307 17.223468 0.260963 68.161433 86.636669 77.205269 -9.317383 4.051775 0.933502 -15.482410 9.132115 6.416121 -3.325511 -0.874704 -1.500818 -0.674117 -6.928675 2.075330 -0.648100 -0.000000 -42.383000 9.571716 -0.189620 3.824420 9.329737 -0.630818 -31.885782 3.465537 1.554643 -0.579332 0.636971 3.721063 0.851676 0.103499 0.000000 -39.399500
8.719146 17.210336 0.279808 67.143293 86.525240 76.220086 -9.296390 4.095850 0.898481 -15.406256 9.132656 6.780710 -3.313488 -0.824625 -1.216582 -0.677245 -6.985246 2.256398 -0.673601 -0.000000 -43.349600 9.541809 -0.132061 3.923189 9.571305 -0.530756 -31.666767 3.519546 1.807153 -2.373818 0.658293 3.788909 0.829151 0.104600 0.000000 -40.043000
8.853638 17.197111 0.298458 66.152479 86.423154 75.252729 -9.278639 4.138793 0.870052 -15.322349 9.096934 7.147698 -3.295871 -0.771121 -0.904611 -0.676253 -6.994860 2.431805 -0.693400 0.000000 -44.387100 9.508767 -0.076381 4.009463 9.815727 -0.431280 -31.439638 3.560203 2.041734 -3.999719 0.668348 3.812962 0.742028 0.097600 0.000000 -40.626600
8.989847 17.183714 0.316898 65.134948 86.327379 74.250102 -9.263870 4.180577 0.848288 -15.235759 9.025474 7.518876 -3.272941 -0.714737 -0.571787 -0.671238 -6.955968 2.607279 -0.707400 -0.000000 -45.513600 9.471335 -0.024917 4.083611 10.056970 -0.322906 -31.216964 3.589951 2.251990 -5.405150 0.669644 3.817117 0.565931 0.086501 -0.000000 -41.128301
9.127832 17.170110 0.335032 64.021323 86.234471 73.142947 -9.253265 4.221493 0.830843 -15.147065 8.930622 7.893138 -3.245271 -0.655315 -0.219443 -0.663093 -6.879469 2.791783 -0.717500 0.000000 -46.753200 9.427726 0.019740 4.147076 10.286741 -0.191002 -31.006731 3.611282 2.432440 -6.544158 0.664178 3.822367 0.278206 0.075000 -0.000000 -41.531700
9.267815 17.156242 0.353065 62.795292 86.142190 71.924379 -9.240258 4.262249 0.821705 -15.068851 8.802565 8.262940 -3.214247 -0.594676 0.144626 -0.651898 -6.761544 2.990075 -0.723200 0.000001 -48.058700 9.363774 0.050026 4.200969 10.495418 0.024230 -31.188481 3.634984 2.507582 -6.623172 0.632063 3.863469 -0.561244 0.065199 0.000000 -41.803701
9.409294 17.142050 0.370423 61.310270 86.049723 70.427520 -9.237786 4.304091 0.804829 -14.971386 8.712284 8.632858 -3.179579 -0.528167 0.541606 -0.641577 -6.662692 3.227285 -0.734601 0.000000 -49.551700 9.283010 0.064797 4.245130 10.679818 0.312312 -31.496310 3.660064 2.519819 -6.120622 0.587162 3.938451 -1.671144 0.059100 0.000000 -41.958300
